<?xml version="1.0" encoding="UTF-8" standalone="no"?>
<!-- Created with Inkscape (http://www.inkscape.org/) -->

<svg
   xmlns:dc="http://purl.org/dc/elements/1.1/"
   xmlns:cc="http://creativecommons.org/ns#"
   xmlns:rdf="http://www.w3.org/1999/02/22-rdf-syntax-ns#"
   xmlns:svg="http://www.w3.org/2000/svg"
   xmlns="http://www.w3.org/2000/svg"
   xmlns:sodipodi="http://sodipodi.sourceforge.net/DTD/sodipodi-0.dtd"
   xmlns:inkscape="http://www.inkscape.org/namespaces/inkscape"
   version="1.1"
   id="svg815"
   xml:space="preserve"
   width="396.85068"
   height="559.37067"
   viewBox="0 0 396.85068 559.37067"
   sodipodi:docname="cards01_ink.svg"
   inkscape:version="0.92.3 (2405546, 2018-03-11)"><metadata
     id="metadata821"><rdf:RDF><cc:Work
         rdf:about=""><dc:format>image/svg+xml</dc:format><dc:type
           rdf:resource="http://purl.org/dc/dcmitype/StillImage" /><dc:title></dc:title></cc:Work></rdf:RDF></metadata><defs
     id="defs819"><clipPath
       clipPathUnits="userSpaceOnUse"
       id="clipPath833"><path
         d="M 0,419.528 H 297.638 V 0 H 0 Z"
         id="path831"
         inkscape:connector-curvature="0" /></clipPath><clipPath
       clipPathUnits="userSpaceOnUse"
       id="clipPath877"><path
         d="M 0,0 H 297.638 V 419.528 H 0 Z"
         id="path875"
         inkscape:connector-curvature="0" /></clipPath></defs><sodipodi:namedview
     pagecolor="#ffffff"
     bordercolor="#666666"
     borderopacity="1"
     objecttolerance="10"
     gridtolerance="10"
     guidetolerance="10"
     inkscape:pageopacity="0"
     inkscape:pageshadow="2"
     inkscape:window-width="2880"
     inkscape:window-height="1706"
     id="namedview817"
     showgrid="false"
     inkscape:zoom="1.9012234"
     inkscape:cx="155.50007"
     inkscape:cy="334.83278"
     inkscape:window-x="-11"
     inkscape:window-y="-11"
     inkscape:window-maximized="1"
     inkscape:current-layer="g823" /><g
     id="g823"
     inkscape:groupmode="layer"
     inkscape:label="cards42_1Set"
     transform="matrix(1.3333333,0,0,-1.3333333,0,559.37067)"><g
       id="g825"><g
         id="g827"><g
           id="g829"
           clip-path="url(#clipPath833)"><path
             d="m -13.701,-26.929 h 345.827 v 460.63 H -13.701 Z"
             style="fill:#1d2248;fill-opacity:1;fill-rule:nonzero;stroke:none"
             id="path835"
             inkscape:connector-curvature="0" /><path
             d="m 218.758,33.854 h 3.28 V 20.079 h -3.28 z"
             style="fill:#ffffff;fill-opacity:1;fill-rule:nonzero;stroke:none"
             id="path837"
             inkscape:connector-curvature="0" /><g
             id="g839"
             transform="translate(245.7576,20.0787)"><path
               d="M 0,0 V 13.775 H -3.28 V 5.353 l -6.297,8.422 h -1.443 -1.706 V 5.353 l -6.271,8.422 h -3.149 V 0 h 3.28 V 8.396 L -12.595,0 h 0.551 1.863 0.761 V 8.396 L -3.149,0 Z"
               style="fill:#ffffff;fill-opacity:1;fill-rule:nonzero;stroke:none"
               id="path841"
               inkscape:connector-curvature="0" /></g><g
             id="g843"
             transform="translate(254.154,30.9678)"><path
               d="M 0,0 C 2.23,0 3.831,-1.627 3.831,-3.988 3.831,-6.35 2.23,-7.977 0,-7.977 c -2.257,0 -3.831,1.627 -3.831,3.989 C -3.831,-1.627 -2.23,0 0,0 m 0,3.149 c -4.251,0 -7.268,-3.044 -7.268,-7.137 0,-4.094 3.017,-7.137 7.268,-7.137 4.251,0 7.268,3.043 7.268,7.137 0,4.093 -3.017,7.137 -7.268,7.137"
               style="fill:#ffffff;fill-opacity:1;fill-rule:nonzero;stroke:none"
               id="path845"
               inkscape:connector-curvature="0" /></g><g
             id="g847"
             transform="translate(269.6087,30.9678)"><path
               d="m 0,0 c 2.23,0 3.831,-1.627 3.831,-3.988 0,-0.446 -0.053,-0.866 -0.158,-1.26 l -0.446,0.604 h -3.568 l 2.178,-2.913 c -0.525,-0.262 -1.155,-0.42 -1.811,-0.42 -2.23,0 -3.831,1.627 -3.831,3.989 C -3.831,-1.653 -2.23,0 0,0 m 0,3.149 c -4.251,0 -7.268,-3.044 -7.268,-7.137 0,-4.094 3.017,-7.137 7.268,-7.137 1.443,0 2.676,0.393 3.726,1.076 l 0.603,-0.814 H 8.187 L 6.009,-7.924 C 6.77,-6.822 7.216,-5.536 7.216,-3.988 7.268,0.105 4.251,3.149 0,3.149"
               style="fill:#ef325b;fill-opacity:1;fill-rule:nonzero;stroke:none"
               id="path849"
               inkscape:connector-curvature="0" /></g></g></g></g><g
       id="g851"
       transform="translate(144.5605,310.3281)"><path
         d="M 0,0 V -30.991"
         style="fill:none;stroke:#ffffff;stroke-width:3;stroke-linecap:round;stroke-linejoin:round;stroke-miterlimit:4;stroke-dasharray:none;stroke-opacity:1"
         id="path853"
         inkscape:connector-curvature="0" /></g><g
       id="g855"
       transform="translate(16.6035,158.3712)"><path
         d="M 0,0 H 33.202"
         style="fill:none;stroke:#ffffff;stroke-width:3;stroke-linecap:round;stroke-linejoin:round;stroke-miterlimit:4;stroke-dasharray:none;stroke-opacity:1"
         id="path857"
         inkscape:connector-curvature="0" /></g><g
       id="g859"
       transform="translate(269.5171,158.3712)"><path
         d="M 0,0 H -33.202"
         style="fill:none;stroke:#ffffff;stroke-width:3;stroke-linecap:round;stroke-linejoin:round;stroke-miterlimit:4;stroke-dasharray:none;stroke-opacity:1"
         id="path861"
         inkscape:connector-curvature="0" /></g><g
       id="g863"
       transform="translate(42.752,271.6098)"><path
         d="M 0,0 28.202,-28.182"
         style="fill:none;stroke:#ffffff;stroke-width:3;stroke-linecap:round;stroke-linejoin:round;stroke-miterlimit:4;stroke-dasharray:none;stroke-opacity:1"
         id="path865"
         inkscape:connector-curvature="0" /></g><g
       id="g867"
       transform="translate(247.3687,268.6098)"><path
         d="M 0,0 -28.202,-28.182"
         style="fill:none;stroke:#ffffff;stroke-width:3;stroke-linecap:round;stroke-linejoin:round;stroke-miterlimit:4;stroke-dasharray:none;stroke-opacity:1"
         id="path869"
         inkscape:connector-curvature="0" /></g><g
       id="g871"><g
         id="g873"
         clip-path="url(#clipPath877)"><g
           id="g879"
           transform="translate(227.083,182.1276)"><path
             d="m 0,0 c 0.042,41.728 -30.716,77.086 -72.047,82.821 -41.334,5.736 -80.558,-19.913 -91.875,-60.077 -11.32,-40.164 8.74,-82.52 46.984,-99.21 v -40.472 h 66.822 v 40.472 C -19.69,-63.213 -0.011,-33.188 0,0"
             style="fill:#ffffff;fill-opacity:1;fill-rule:nonzero;stroke:none"
             id="path881"
             inkscape:connector-curvature="0" /></g><g
           id="g883"
           transform="translate(227.083,182.1276)"><path
             d="m 0,0 c 0.042,41.728 -30.716,77.086 -72.047,82.821 -41.334,5.736 -80.558,-19.913 -91.875,-60.077 -11.32,-40.164 8.74,-82.52 46.984,-99.21 v -40.472 h 66.822 v 40.472 C -19.69,-63.213 -0.011,-33.188 0,0 Z"
             style="fill:none;stroke:#ffffff;stroke-width:3;stroke-linecap:round;stroke-linejoin:round;stroke-miterlimit:4;stroke-dasharray:none;stroke-opacity:1"
             id="path885"
             inkscape:connector-curvature="0" /></g><g
           id="g887"
           transform="translate(109.6821,54.0457)"><path
             d="m 0,0 c 9.417,0 17.051,7.634 17.051,17.051 0,9.417 -7.634,17.051 -17.051,17.051 -9.417,0 -17.051,-7.634 -17.051,-17.051 C -17.051,7.634 -9.417,0 0,0"
             style="fill:#59c6a0;fill-opacity:1;fill-rule:nonzero;stroke:none"
             id="path889"
             inkscape:connector-curvature="0" /></g><g
           id="g891"
           transform="translate(109.6821,54.0457)"><path
             d="m 0,0 c 9.417,0 17.051,7.634 17.051,17.051 0,9.417 -7.634,17.051 -17.051,17.051 -9.417,0 -17.051,-7.634 -17.051,-17.051 C -17.051,7.634 -9.417,0 0,0 Z"
             style="fill:none;stroke:#ffffff;stroke-width:2.52900004;stroke-linecap:round;stroke-linejoin:round;stroke-miterlimit:4;stroke-dasharray:none;stroke-opacity:1"
             id="path893"
             inkscape:connector-curvature="0" /></g><g
           id="g895"
           transform="translate(137.1328,32.8255)"><path
             d="M 0,0 C -4.07,11.672 -15.079,19.492 -27.441,19.492 -39.803,19.492 -50.812,11.672 -54.882,0"
             style="fill:#59c6a0;fill-opacity:1;fill-rule:nonzero;stroke:#ffffff;stroke-width:2.52900004;stroke-linecap:round;stroke-linejoin:round;stroke-miterlimit:4;stroke-dasharray:none;stroke-opacity:1"
             id="path897"
             inkscape:connector-curvature="0" /></g></g></g><text
       transform="matrix(1,0,0,-1,19.8425,387.1869)"
       style="font-variant:normal;font-weight:800;font-stretch:normal;font-size:16px;font-family:'Mark Pro Heavy';-inkscape-font-specification:MarkPro-Heavy;writing-mode:lr-tb;fill:#ffffff;fill-opacity:1;fill-rule:nonzero;stroke:none"
       id="text901"><tspan
         x="0 10.5504 19.384001 27.4688 36.894402 46.1408 52.569599 60.705601 69.457603 81.436798 85.692802 89.948799 99.416 107.56 117.2128 124.9232 129.1248 138.5744 147.91521 158.30721 167.4032 177.0912 185.9872 194.47681 202.0928 211.74561 219.45599 223.65759 233.10719"
         y="0"
         sodipodi:role="line"
         id="tspan899">ResourceAllocationExpectation</tspan></text>
<text
       transform="matrix(1,0,0,-1,19.8425,364.283)"
       style="font-variant:normal;font-weight:normal;font-stretch:normal;font-size:12px;font-family:'Mark Pro Book';-inkscape-font-specification:MarkPro-Book;writing-mode:lr-tb;fill:#ffffff;fill-opacity:1;fill-rule:nonzero;stroke:none"
       id="text909"><tspan
         x="0 9.4440002 12.3936 23.791201 35.251202 38.4552 45.853199 53.099998 56.082001 59.285999 68.881203 76.0392 79.243202 86.695198 94.093201 99.405602 104.5344 110.6148 116.0568 119.2608 126.3336 133.52161 140.2164 147.4044 154.8024 157.752 160.73399 166.782 173.97 180.696 183.89999 191.77679 198.4512 204.3792 210.3396 217.5168 224.5896 229.41 235.39439 242.088 249.31799"
         y="0"
         sodipodi:role="line"
         id="tspan903">Nimm an, Du darfst unendliche Ressourcen </tspan><tspan
         x="0 5.04 12.6672 19.3332 22.297199 27.8556 30.837601 34.041599 43.881599 50.5896 53.600399 61.0788 64.060799 67.264801 78.4776 81.441597 86.678398 94.076401 99.020401 106.536 113.202 116.166 121.416 128.1096 133.1376 136.3416 142.9644 148.2012 154.4964 157.10519 162.0612 165.2652 170.3748 177.44279 182.47079 185.6748 195.28081 201.94679 204.89639 212.1264 215.3304 223.12801 227.9364 235.08839 238.09801 244.7928 251.5092 256.9512"
         y="14.4"
         sodipodi:role="line"
         id="tspan905">(Zeit, Geld, Mitarbeiter etc.) für Dein Projekt </tspan><tspan
         x="0 7.3979998 10.344 13.356 20.566799 26.9352 29.9172 36.612 41.444401 48.138 55.430401 58.580399"
         y="28.799999"
         sodipodi:role="line"
         id="tspan907">allokieren. </tspan></text>
<text
       transform="matrix(1,0,0,-1,81.6269,335.483)"
       style="font-variant:normal;font-weight:800;font-stretch:normal;font-size:12px;font-family:'Mark Pro Heavy';-inkscape-font-specification:MarkPro-Heavy;writing-mode:lr-tb;fill:#59c6a0;fill-opacity:1;fill-rule:nonzero;stroke:none"
       id="text913"><tspan
         x="0 12.702 19.982401 26.0784 28.766399 39.530399 46.478401 51.3204 58.5984 65.237999 71.334 77.082001 79.769997 89.0196 95.931602 98.619598 104.3556 111.3036 118.2684"
         y="0"
         sodipodi:role="line"
         id="tspan911">Was würdest Du tun?</tspan></text>
<text
       transform="matrix(1,0,0,-1,19.8425,19.8425)"
       style="font-variant:normal;font-weight:normal;font-stretch:normal;font-size:9px;font-family:'Mark Pro Book';-inkscape-font-specification:MarkPro-Book;writing-mode:lr-tb;fill:#ffffff;fill-opacity:1;fill-rule:nonzero;stroke:none"
       id="text917"><tspan
         x="0 4.6160998 10.2897 14.0346 19.741501 24.511499 29.712601 34.970402 37.366199 42.897598 46.655102 52.366501 56.477699 62.970299 68.033699 72.774902 78.531303 83.697304 88.580704 92.637901 98.325897 102.5019 104.8635 110.3949"
         y="0"
         sodipodi:role="line"
         id="tspan915">cards42.org/#expectation</tspan></text>
</g></svg>